<svg xmlns="http://www.w3.org/2000/svg" width="2684" height="740" viewBox="0 0 2684 740" fill="none" class="circuit-loader">
<path d="M1719.68 190.478L2353.68 11.9783C2422.88 -4.57655 2597.85 193.08 2670.18 293.978C2690.18 503.178 2566.52 451.478 2502.18 399.478L2477.18 145.478C2455.35 119.478 2405.18 82.0783 2379.18 140.478C2346.68 213.478 2285.68 263.978 2234.18 311.478C2192.98 349.478 2058.02 345.312 1995.68 338.478C1908.48 376.878 1956.02 491.145 1990.68 543.478C1710.18 542.645 1122.98 541.478 1018.18 543.478C887.184 545.978 859.184 621.978 859.184 659.978C859.184 690.378 658.851 685.645 558.684 679.478C543.884 671.078 331.85 707.645 227.684 726.978C209.184 674.501 158.284 591.534 102.684 679.478C47.0838 767.423 18.8506 687.788 11.6839 636.978C-1.91606 502.178 190.684 566.145 288.684 614.978C538.184 546.478 1440.18 414.978 1431.18 271.478C1422.18 127.978 1543.18 190.478 1544.68 200.978C1545.88 209.378 1661.85 197.478 1719.68 190.478Z" stroke="black" stroke-width="22"/>
</svg>